<?xml version="1.0" standalone="no"?>
<!DOCTYPE svg PUBLIC "-//W3C//DTD SVG 20010904//EN"
 "http://www.w3.org/TR/2001/REC-SVG-20010904/DTD/svg10.dtd">
<svg version="1.0" xmlns="http://www.w3.org/2000/svg"
 width="452pt" height="90pt" viewBox="0 0 452 90"
 preserveAspectRatio="xMidYMid meet">

<g transform="translate(0,90) scale(0.1,-0.1)"
fill="#000000" stroke="none">
<path d="M330 681 c0 -37 -2 -41 -25 -41 l-25 0 0 -255 0 -255 365 0 365 0 0
255 0 255 -25 0 c-23 0 -25 4 -25 41 l0 42 -81 -7 c-86 -8 -168 -29 -210 -53
-23 -14 -28 -14 -50 0 -38 24 -120 45 -208 53 l-81 7 0 -42z m146 8 c32 -6 80
-20 107 -31 l47 -20 0 -219 c0 -121 -2 -219 -4 -219 -2 0 -23 9 -47 19 -34 16
-173 41 -221 41 -5 0 -8 99 -8 220 l0 220 33 0 c18 0 60 -5 93 -11z m464 -209
c0 -121 -3 -220 -8 -220 -48 0 -187 -25 -221 -41 -24 -10 -47 -19 -52 -19 -5
0 -9 96 -9 214 0 166 3 216 13 225 34 27 152 58 235 60 l42 1 0 -220z m-610
-48 l0 -188 99 -11 c67 -7 118 -20 159 -38 55 -25 62 -26 83 -12 38 24 121 45
208 53 l81 7 0 188 c0 161 2 189 15 189 13 0 15 -33 15 -240 l0 -240 -347 2
-348 3 -3 238 c-2 232 -2 237 18 237 19 0 20 -6 20 -188z"/>
<path d="M2650 485 l0 -225 60 0 60 0 0 44 c0 27 6 48 15 56 13 10 19 8 38
-16 66 -85 66 -85 139 -82 l68 3 -56 70 c-99 123 -97 106 -18 186 l68 69 -69
0 -69 0 -58 -57 -58 -57 0 117 0 117 -60 0 -60 0 0 -225z"/>
<path d="M1360 646 l0 -46 111 0 c121 0 149 -8 149 -44 0 -32 -14 -36 -146
-36 l-114 0 0 -45 0 -44 131 -3 c120 -3 133 -5 145 -24 12 -17 12 -23 0 -39
-12 -17 -31 -20 -145 -23 l-131 -4 0 -39 0 -39 155 0 c169 0 195 6 234 56 36
45 23 117 -26 150 l-25 16 21 22 c27 29 36 83 19 115 -28 53 -70 66 -230 70
l-148 3 0 -46z"/>
<path d="M3080 475 l0 -215 160 0 160 0 0 45 0 45 -100 0 -100 0 -2 168 -3
167 -57 3 -58 3 0 -216z"/>
<path d="M1950 589 c-53 -10 -86 -33 -118 -80 -20 -29 -23 -44 -20 -94 6 -106
68 -160 183 -160 111 0 176 55 183 156 5 66 -12 106 -60 142 -50 37 -102 48
-168 36z m90 -109 c45 -45 15 -132 -45 -132 -57 0 -87 77 -49 130 19 28 67 29
94 2z"/>
<path d="M2361 589 c-51 -10 -105 -48 -126 -89 -22 -43 -19 -118 8 -164 30
-54 85 -81 162 -81 106 0 174 54 183 146 6 64 -2 92 -39 133 -42 49 -113 69
-188 55z m89 -109 c27 -27 27 -90 0 -115 -46 -41 -110 -9 -110 57 0 45 28 78
65 78 14 0 34 -9 45 -20z"/>
<path d="M3530 579 c-115 -46 -135 -209 -37 -290 58 -47 186 -44 246 7 89 75
70 223 -35 274 -44 22 -131 26 -174 9z m134 -101 c26 -37 21 -93 -11 -118 -71
-56 -154 50 -91 117 29 31 81 31 102 1z"/>
<path d="M3920 572 c-104 -52 -109 -210 -8 -272 40 -24 117 -26 160 -4 l31 16
-7 -29 c-14 -60 -76 -78 -161 -48 -21 8 -40 13 -40 12 -1 -1 -9 -13 -18 -27
-9 -13 -17 -30 -17 -38 0 -23 71 -45 150 -46 97 -1 146 22 178 84 20 41 22 58
22 207 l0 163 -55 0 c-50 0 -55 -2 -55 -22 0 -13 -3 -18 -8 -12 -24 37 -115
45 -172 16z m160 -92 c54 -54 -13 -136 -86 -105 -48 20 -58 66 -24 103 27 29
83 29 110 2z"/>
</g>
</svg>
