<?xml version="1.0" encoding="UTF-8"?>
<!DOCTYPE svg PUBLIC "-//W3C//DTD SVG 1.1//EN" "http://www.w3.org/Graphics/SVG/1.1/DTD/svg11.dtd">
<svg xmlns="http://www.w3.org/2000/svg" version="1.1" width="437px" height="142px" style="shape-rendering:geometricPrecision; text-rendering:geometricPrecision; image-rendering:optimizeQuality; fill-rule:evenodd; clip-rule:evenodd" xmlns:xlink="http://www.w3.org/1999/xlink">
<g><path fill="#f8723a" fill-rule="evenodd" d="M 354.5,114.5 C 352.489,111.131 351.489,107.464 351.5,103.5C 352.679,84.1644 362.512,71.831 381,66.5C 383.244,56.886 385.244,47.2194 387,37.5C 389.002,29.8313 392.335,22.8313 397,16.5C 405.28,10.2115 411.947,11.5448 417,20.5C 418.471,26.4308 418.804,32.4308 418,38.5C 413.526,58.3012 406.193,76.9679 396,94.5C 394.642,100.031 395.809,104.865 399.5,109C 401.167,109.667 402.833,109.667 404.5,109C 409.167,105.667 413.167,101.667 416.5,97C 418.749,96.1368 420.582,96.6368 422,98.5C 422.667,100.833 422.667,103.167 422,105.5C 416.614,114.063 409.114,119.73 399.5,122.5C 392.91,121.748 388.077,118.415 385,112.5C 378.366,121.925 369.866,124.425 359.5,120C 357.627,118.296 355.96,116.463 354.5,114.5 Z M 404.5,23.5 C 405.75,23.5774 406.583,24.244 407,25.5C 408.506,43.3126 404.839,59.9793 396,75.5C 395.47,60.2688 397.137,45.2688 401,30.5C 401.959,28.047 403.126,25.7137 404.5,23.5 Z M 378.5,79.5 C 379.812,81.7432 380.478,84.4098 380.5,87.5C 381.003,92.8435 381.17,98.1769 381,103.5C 378.791,108.685 374.958,110.851 369.5,110C 368.333,109.5 367.5,108.667 367,107.5C 364.883,95.678 368.716,86.3446 378.5,79.5 Z"/></g>
<g><path fill="#f6b716" fill-rule="evenodd" d="M 145.5,102.5 C 146.957,106.178 148.623,109.845 150.5,113.5C 139.386,123.926 127.386,125.093 114.5,117C 111.398,112.963 109.232,108.463 108,103.5C 106.713,95.2195 106.213,86.8861 106.5,78.5C 96.1446,79.4013 93.8112,75.568 99.5,67C 102.482,66.502 105.482,66.3354 108.5,66.5C 109.935,52.6932 114.435,40.0265 122,28.5C 127.844,20.1464 135.01,18.4797 143.5,23.5C 147.401,30.1125 148.234,37.1125 146,44.5C 143.406,52.8532 138.906,60.0198 132.5,66C 137.5,66.3333 142.5,66.6667 147.5,67C 149.54,72.6714 147.54,76.3381 141.5,78C 134.508,78.4996 127.508,78.6663 120.5,78.5C 120.2,85.8956 120.7,93.229 122,100.5C 124.681,109.089 130.181,111.589 138.5,108C 141.595,107.065 143.929,105.231 145.5,102.5 Z M 132.5,31.5 C 133.496,31.4142 134.329,31.7476 135,32.5C 136.131,45.1091 132.131,55.7758 123,64.5C 122.333,62.5 122.333,60.5 123,58.5C 124.49,52.8745 125.823,47.2078 127,41.5C 128.369,37.8721 130.203,34.5388 132.5,31.5 Z"/></g>
<g><path fill="#f5c514" d="M 60.5,22.5 C 72.7017,21.7362 83.535,25.0695 93,32.5C 98.5375,40.9549 98.8708,49.6216 94,58.5C 89.3562,61.6149 85.3562,60.9483 82,56.5C 81.6667,51.5 81.3333,46.5 81,41.5C 74.5153,35.8858 67.0153,34.0524 58.5,36C 44.8537,39.6342 41.8537,47.3009 49.5,59C 59.6256,64.3782 69.9589,69.3782 80.5,74C 91.3362,80.1787 95.1695,89.3454 92,101.5C 89.6867,109.816 84.52,115.649 76.5,119C 65.7434,122.324 54.7434,123.324 43.5,122C 22.8616,117.71 16.5283,106.044 24.5,87C 31.0393,83.7808 35.0393,85.6141 36.5,92.5C 33.7084,101.199 36.7084,106.699 45.5,109C 54.0103,110.114 62.3437,109.448 70.5,107C 76.1088,103.723 77.9422,98.8897 76,92.5C 74.8783,90.3762 73.3783,88.5429 71.5,87C 61.9516,82.3923 52.285,78.0589 42.5,74C 28.2808,64.2897 25.1141,51.7897 33,36.5C 40.2901,27.9389 49.4567,23.2723 60.5,22.5 Z"/></g>
<g><path fill="#f6a91d" fill-rule="evenodd" d="M 201.5,87.5 C 200.838,91.4659 200.505,95.4659 200.5,99.5C 197.587,100.241 194.587,100.741 191.5,101C 186.474,118.843 175.141,125.176 157.5,120C 154.712,118.281 152.379,116.115 150.5,113.5C 148.623,109.845 146.957,106.178 145.5,102.5C 144.09,86.1357 150.757,74.6357 165.5,68C 174.005,66.0801 181.171,68.2468 187,74.5C 189.653,78.966 191.819,83.6326 193.5,88.5C 196.084,87.6072 198.751,87.2739 201.5,87.5 Z M 170.5,79.5 C 170.759,86.8696 173.426,93.3696 178.5,99C 177.228,106.63 172.895,109.963 165.5,109C 161.768,105.308 160.101,100.808 160.5,95.5C 160.068,89.6239 162.068,84.7906 166.5,81C 168.058,80.79 169.391,80.29 170.5,79.5 Z"/></g>
<g><path fill="#f79b23" d="M 251.5,92.5 C 251.237,96.6002 251.57,100.6 252.5,104.5C 236.836,107.839 230.17,101.506 232.5,85.5C 231.448,85.3505 230.448,85.5172 229.5,86C 221.967,95.5626 217.134,106.396 215,118.5C 210.205,124.089 205.872,123.756 202,117.5C 200.761,111.565 200.261,105.565 200.5,99.5C 200.505,95.4659 200.838,91.4659 201.5,87.5C 202.469,82.0259 203.969,76.6925 206,71.5C 209.387,67.9609 213.553,66.6276 218.5,67.5C 217.277,76.2264 216.11,84.893 215,93.5C 218.557,83.9471 224.39,76.1138 232.5,70C 236.57,67.4498 240.903,66.9498 245.5,68.5C 246.584,69.6651 247.417,70.9984 248,72.5C 247.341,78.799 247.008,85.1324 247,91.5C 248.356,92.3802 249.856,92.7135 251.5,92.5 Z"/></g>
<g><path fill="#f78d29" fill-rule="evenodd" d="M 296.5,103.5 C 297.008,107.197 297.674,110.864 298.5,114.5C 286.682,123.708 274.015,124.875 260.5,118C 256.352,114.358 253.686,109.858 252.5,104.5C 251.57,100.6 251.237,96.6002 251.5,92.5C 255.045,75.4315 265.378,67.2648 282.5,68C 292.361,72.3068 295.195,79.4735 291,89.5C 289.262,93.2413 286.762,96.408 283.5,99C 278.461,101.867 273.128,104.033 267.5,105.5C 270.127,109.272 273.794,110.938 278.5,110.5C 285.156,109.728 291.156,107.395 296.5,103.5 Z M 272.5,79.5 C 278.496,78.3327 280.996,80.6661 280,86.5C 276.573,91.5487 271.906,94.8821 266,96.5C 264.944,89.4889 267.111,83.8222 272.5,79.5 Z"/></g>
<g><path fill="#f87f32" fill-rule="evenodd" d="M 351.5,103.5 C 351.489,107.464 352.489,111.131 354.5,114.5C 350.504,118.658 345.671,121.324 340,122.5C 334.206,121.377 330.206,118.043 328,112.5C 322.649,121.036 315.149,123.87 305.5,121C 303.297,118.628 300.963,116.461 298.5,114.5C 297.674,110.864 297.008,107.197 296.5,103.5C 297.436,84.0756 307.269,72.0756 326,67.5C 328.923,67.0454 331.09,68.0454 332.5,70.5C 336.175,71.0564 339.675,72.0564 343,73.5C 342.568,80.5236 341.568,87.5236 340,94.5C 339.333,99.1667 339.333,103.833 340,108.5C 341.388,109.554 342.888,109.72 344.5,109C 346.996,107.334 349.329,105.5 351.5,103.5 Z M 328.5,77.5 C 329.097,77.7352 329.43,78.2352 329.5,79C 327.538,87.143 325.705,95.3097 324,103.5C 322.47,109.054 318.97,111.221 313.5,110C 309.188,94.7943 314.188,83.9609 328.5,77.5 Z"/></g>
</svg>
